<mxfile host="app.diagrams.net" modified="2023-06-20T09:27:58.309Z" agent="Mozilla/5.0 (Windows NT 10.0; Win64; x64) AppleWebKit/537.36 (KHTML, like Gecko) Chrome/114.0.0.0 Safari/537.36" version="21.4.0" etag="DNGpqfdSXEdfY1rVD43X" type="github">
  <diagram name="Trang-1" id="-Vfi4sXvVxt3Oimtav81">
    <mxGraphModel>
      <root>
        <mxCell id="0" />
        <mxCell id="1" parent="0" />
      </root>
    </mxGraphModel>
  </diagram>
</mxfile>
